<svg xmlns="http://www.w3.org/2000/svg" version="1.1" xmlns:xlink="http://www.w3.org/1999/xlink" xmlns:svgjs="http://svgjs.com/svgjs" width="506" height="569"><svg width="506" height="569" viewBox="0 0 506 569" fill="none" xmlns="http://www.w3.org/2000/svg">
<g clip-path="url(#clip0_504_3)">
<path fill-rule="evenodd" clip-rule="evenodd" d="M301.576 65.147L418.482 132.61C421.857 129.041 425.73 125.978 429.981 123.515C454.226 109.584 485.151 117.855 499.234 142.089C513.173 166.322 504.897 197.229 480.651 211.304C476.431 213.733 471.884 215.542 467.149 216.677V351.653C471.832 352.79 476.33 354.588 480.506 356.991C504.897 371.067 513.173 401.975 499.09 426.209C485.151 450.44 454.082 458.711 429.835 444.782C425.138 442.089 420.906 438.655 417.304 434.614L301.109 501.663C302.811 506.812 303.675 512.201 303.669 517.625C303.669 545.485 281.022 568.269 253 568.269C224.978 568.269 202.331 545.629 202.331 517.625C202.331 512.646 203.046 507.838 204.38 503.296L87.5064 435.853C84.1682 439.351 80.3496 442.358 76.1648 444.782C51.7741 458.711 20.8488 450.44 6.91005 426.209C-7.02669 401.975 1.24918 371.067 25.4937 356.991C29.6703 354.587 34.1679 352.789 38.8513 351.651V216.677C34.1162 215.542 29.5691 213.733 25.3494 211.304C1.10291 197.375 -7.17295 166.322 6.76576 142.089C20.7045 117.855 51.7721 109.584 76.0186 123.515C80.2466 125.964 84.1007 129.008 87.4629 132.553L204.402 65.0719C203.024 60.3957 202.326 55.5455 202.331 50.6705C202.331 22.6679 224.978 0.0286865 253 0.0286865C281.022 0.0286865 303.669 22.6659 303.669 50.6705C303.669 55.7041 302.938 60.5619 301.576 65.147ZM289.396 85.9332L406.581 153.554C404.715 160.074 404.18 166.901 405.007 173.632C405.835 180.362 408.008 186.857 411.398 192.731C418.531 205.133 430.151 213.355 443.048 216.559V351.703C442.39 351.863 441.736 352.039 441.086 352.224L288.035 87.2864C288.497 86.8439 288.952 86.3915 289.396 85.9332ZM217.997 87.316L64.9479 352.25C64.2861 352.059 63.6205 351.881 62.9515 351.717V216.559C75.8486 213.355 87.4688 205.133 94.6022 192.731C97.9987 186.845 100.174 180.337 100.998 173.593C101.822 166.849 101.279 160.008 99.3993 153.479L216.55 85.8779C217.023 86.3658 217.505 86.8458 217.997 87.314V87.316ZM267.158 99.3172L420.172 364.192C416.667 367.534 413.662 371.365 411.251 375.565C408.847 379.739 407.048 384.234 405.911 388.915H100.093C98.9541 384.234 97.1545 379.739 94.7485 375.565C92.3292 371.394 89.3306 367.587 85.8421 364.257L238.885 99.329C243.474 100.649 248.225 101.317 253 101.312C257.916 101.312 262.665 100.617 267.158 99.3172ZM290.472 483.508L406.895 416.325C406.546 415.228 406.234 414.12 405.96 413.002H100.028C99.8658 413.66 99.6899 414.312 99.5021 414.962L216.495 482.475C221.219 477.565 226.889 473.661 233.163 470.999C239.436 468.336 246.184 466.97 253 466.983C260.054 466.97 267.032 468.434 273.486 471.281C279.94 474.127 285.726 478.292 290.472 483.508Z" fill="#096DD9"></path>
</g>
<defs>
<clipPath id="SvgjsClipPath1000">
<rect width="506" height="569" fill="white"></rect>
</clipPath>
</defs>
</svg><style>@media (prefers-color-scheme: light) { :root { filter: none; } }
</style></svg>