<svg width="1690" height="197" viewBox="0 0 1690 197" fill="none" xmlns="http://www.w3.org/2000/svg">
<path fill-rule="evenodd" clip-rule="evenodd" d="M0 168.097L40.2381 163.771C80.4762 158.827 160.952 149.557 241.429 126.073C321.905 102.589 402.381 65.5084 482.857 65.5084C563.333 65.5084 643.81 102.589 724.286 126.073C804.762 149.557 885.238 158.827 965.714 154.501C1046.19 149.557 1126.67 131.017 1207.14 116.803C1287.62 102.589 1368.1 93.3185 1448.57 107.533C1529.05 121.747 1609.52 158.827 1649.76 177.985L1690 196.525V0.000172377H1649.76C1609.52 0.000172377 1529.05 0.000172377 1448.57 0.000172377C1368.1 0.000172377 1287.62 0.000172377 1207.14 0.000172377C1126.67 0.000172377 1046.19 0.000172377 965.714 0.000172377C885.238 0.000172377 804.762 0.000172377 724.286 0.000172377C643.81 0.000172377 563.333 0.000172377 482.857 0.000172377C402.381 0.000172377 321.905 0.000172377 241.429 0.000172377C160.952 0.000172377 80.4762 0.000172377 40.2381 0.000172377H0V168.097Z" fill="#DADEEA"/>
</svg>
