<svg width="1690" height="262" viewBox="0 0 1690 262" fill="none" xmlns="http://www.w3.org/2000/svg">
<path fill-rule="evenodd" clip-rule="evenodd" d="M1690 37.8994L1649.76 43.6667C1609.52 50.2579 1529.05 62.6164 1448.57 93.9245C1368.1 125.233 1287.62 174.667 1207.14 174.667C1126.67 174.667 1046.19 125.233 965.714 93.9245C885.238 62.6164 804.762 50.2579 724.286 56.0252C643.809 62.6164 563.333 87.3333 482.857 106.283C402.381 125.233 321.905 137.591 241.429 118.642C160.952 99.6918 80.4762 50.2579 40.2381 24.717L-4.19617e-05 0V262H40.2381C80.4762 262 160.952 262 241.429 262C321.905 262 402.381 262 482.857 262C563.333 262 643.809 262 724.286 262C804.762 262 885.238 262 965.714 262C1046.19 262 1126.67 262 1207.14 262C1287.62 262 1368.1 262 1448.57 262C1529.05 262 1609.52 262 1649.76 262H1690V37.8994Z" fill="#DADEEA"/>
</svg>
